<?xml version="1.0" encoding="UTF-8"?> <svg xmlns="http://www.w3.org/2000/svg" width="294.141" height="89.16" viewBox="0 0 294.141 89.16"><g id="svgGroup" stroke-linecap="round" fill-rule="evenodd" font-size="9pt" stroke="#00000038" stroke-width="0.25mm" fill="#00000000" style="stroke:#00000038;stroke-width:0.25mm;fill:#00000000"><path d="M 87.012 47.559 L 88.77 38.184 A 26.114 26.114 0 0 0 88.941 37.244 A 20.08 20.08 0 0 0 89.063 36.377 Q 89.16 35.547 89.16 34.473 A 4.726 4.726 0 0 0 89.126 33.875 Q 89.046 33.248 88.777 32.96 A 0.774 0.774 0 0 0 88.184 32.715 A 2.221 2.221 0 0 0 87.606 32.801 Q 87.046 32.953 86.311 33.374 A 11.584 11.584 0 0 0 85.791 33.691 A 20.589 20.589 0 0 0 82.959 35.889 Q 81.873 36.895 81.284 37.602 A 7.276 7.276 0 0 0 81.055 37.891 Q 80.86 37.891 80.029 36.914 A 10.371 10.371 0 0 1 79.747 36.568 Q 79.318 36.017 79.225 35.703 A 0.556 0.556 0 0 1 79.199 35.547 Q 79.729 34.312 81.334 32.639 A 24.446 24.446 0 0 1 81.69 32.275 A 34.83 34.83 0 0 1 84.013 30.163 A 45.399 45.399 0 0 1 86.182 28.467 Q 88.77 26.563 91.455 25.293 A 16.548 16.548 0 0 1 93.227 24.57 Q 94.846 24.023 96.192 24.023 A 5.84 5.84 0 0 1 98.007 24.294 A 4.858 4.858 0 0 1 99.903 25.439 A 4.516 4.516 0 0 1 101.077 27.416 Q 101.367 28.372 101.367 29.59 A 18.267 18.267 0 0 1 101.333 30.677 Q 101.276 31.635 101.123 32.764 Q 100.879 34.57 100.391 36.816 L 98.145 48.438 L 97.803 50.146 A 97.931 97.931 0 0 0 97.464 51.923 A 85.705 85.705 0 0 0 97.363 52.49 Q 97.219 53.324 97.181 53.808 A 3.878 3.878 0 0 0 97.168 54.102 Q 97.168 58.015 99.873 58.103 A 3.873 3.873 0 0 0 100 58.105 Q 101.172 58.105 102.881 55.762 Q 104.59 53.418 106.348 49.805 A 75.321 75.321 0 0 0 109.522 42.236 A 68.655 68.655 0 0 0 110.621 38.916 Q 111.237 36.871 111.621 35.059 L 113.672 24.805 A 11.077 11.077 0 0 1 115.045 24.496 Q 116.488 24.258 118.476 24.224 A 39.526 39.526 0 0 1 119.141 24.219 A 33.272 33.272 0 0 1 121.553 24.301 Q 123.438 24.438 124.903 24.805 L 119.043 55.371 Q 118.946 55.859 118.897 56.396 A 11.245 11.245 0 0 0 118.862 56.932 Q 118.85 57.214 118.848 57.527 A 18.746 18.746 0 0 0 118.848 57.617 Q 118.848 59.512 119.486 59.875 A 0.672 0.672 0 0 0 119.824 59.961 Q 120.706 59.961 121.985 59.165 A 10.569 10.569 0 0 0 122.266 58.984 A 22.415 22.415 0 0 0 124.927 56.896 A 24.604 24.604 0 0 0 125.098 56.738 Q 126.129 55.781 126.66 55.157 A 5.649 5.649 0 0 0 126.953 54.785 A 0.342 0.342 0 0 1 127.111 54.835 Q 127.423 55.006 128.028 55.762 Q 128.672 56.567 128.785 56.974 A 0.586 0.586 0 0 1 128.809 57.129 A 6.05 6.05 0 0 1 128.375 57.897 Q 127.848 58.702 126.923 59.713 A 27.898 27.898 0 0 1 126.319 60.352 A 32.627 32.627 0 0 1 123.96 62.533 A 41.736 41.736 0 0 1 121.826 64.209 Q 119.238 66.113 116.553 67.383 A 16.548 16.548 0 0 1 114.782 68.106 Q 113.162 68.652 111.817 68.652 A 5.167 5.167 0 0 1 108.154 67.236 Q 106.641 65.82 106.641 63.086 A 9.254 9.254 0 0 1 106.656 62.585 Q 106.683 62.09 106.758 61.405 A 42.879 42.879 0 0 1 106.836 60.742 A 61.5 61.5 0 0 1 106.946 59.912 Q 107.129 58.594 107.422 56.836 A 0.704 0.704 0 0 1 107.428 56.775 Q 107.465 56.483 107.719 54.882 A 655.072 655.072 0 0 1 107.813 54.297 A 40.193 40.193 0 0 1 104.712 59.578 A 46.137 46.137 0 0 1 103.662 61.035 A 37.785 37.785 0 0 1 101.227 63.977 A 27.508 27.508 0 0 1 98.584 66.504 A 13.27 13.27 0 0 1 97.163 67.542 Q 96.388 68.028 95.657 68.301 A 5.163 5.163 0 0 1 93.848 68.652 A 9.601 9.601 0 0 1 91.298 68.334 A 6.536 6.536 0 0 1 87.5 65.625 A 11.489 11.489 0 0 1 85.821 61.633 Q 85.473 60.067 85.451 58.251 A 20.267 20.267 0 0 1 85.449 58.008 A 9.643 9.643 0 0 1 85.477 57.33 Q 85.532 56.555 85.699 55.408 A 59.622 59.622 0 0 1 85.889 54.199 A 1074.05 1074.05 0 0 1 86.124 52.795 Q 86.499 50.562 87.012 47.559 Z M 201.074 55.859 L 203.321 44.238 Q 203.809 41.797 204.053 40.381 A 50.198 50.198 0 0 0 204.136 39.886 Q 204.257 39.136 204.287 38.771 A 2.497 2.497 0 0 0 204.297 38.574 Q 204.297 34.661 201.592 34.572 A 3.873 3.873 0 0 0 201.465 34.57 Q 200.293 34.57 198.584 36.914 Q 196.875 39.258 195.117 42.871 A 75.321 75.321 0 0 0 191.944 50.439 A 68.655 68.655 0 0 0 190.845 53.76 Q 190.228 55.804 189.844 57.617 L 187.793 67.871 A 9.776 9.776 0 0 1 186.499 68.174 Q 185.107 68.411 183.119 68.45 A 40.986 40.986 0 0 1 182.324 68.457 A 33.272 33.272 0 0 1 179.912 68.375 Q 178.028 68.237 176.563 67.871 L 182.422 37.305 Q 182.52 36.816 182.569 36.279 A 11.245 11.245 0 0 0 182.604 35.744 Q 182.616 35.462 182.617 35.149 A 18.746 18.746 0 0 0 182.617 35.059 Q 182.617 33.164 181.979 32.801 A 0.672 0.672 0 0 0 181.641 32.715 A 2.221 2.221 0 0 0 181.063 32.801 Q 180.503 32.953 179.768 33.374 A 11.584 11.584 0 0 0 179.248 33.691 A 20.589 20.589 0 0 0 176.416 35.889 Q 175.33 36.895 174.741 37.602 A 7.276 7.276 0 0 0 174.512 37.891 Q 174.317 37.891 173.487 36.914 A 10.371 10.371 0 0 1 173.204 36.568 Q 172.775 36.017 172.682 35.703 A 0.556 0.556 0 0 1 172.656 35.547 Q 173.186 34.312 174.791 32.639 A 24.446 24.446 0 0 1 175.147 32.275 A 34.83 34.83 0 0 1 177.47 30.163 A 45.399 45.399 0 0 1 179.639 28.467 Q 182.227 26.563 184.912 25.293 A 16.548 16.548 0 0 1 186.684 24.57 Q 188.303 24.023 189.649 24.023 A 5.84 5.84 0 0 1 191.464 24.294 A 4.858 4.858 0 0 1 193.36 25.439 A 4.516 4.516 0 0 1 194.534 27.416 Q 194.824 28.372 194.824 29.59 Q 194.824 30.176 194.629 31.738 A 85.568 85.568 0 0 1 194.519 32.581 Q 194.362 33.745 194.123 35.315 A 278.341 278.341 0 0 1 194.043 35.84 A 0.704 0.704 0 0 1 194.037 35.901 Q 194.001 36.193 193.746 37.794 A 655.072 655.072 0 0 1 193.653 38.379 A 44.957 44.957 0 0 1 197.852 31.592 A 36.383 36.383 0 0 1 200.33 28.601 A 27.158 27.158 0 0 1 202.881 26.172 A 13.27 13.27 0 0 1 204.302 25.133 Q 205.077 24.648 205.808 24.375 A 5.163 5.163 0 0 1 207.617 24.023 A 9.601 9.601 0 0 1 210.168 24.342 A 6.536 6.536 0 0 1 213.965 27.051 A 11.489 11.489 0 0 1 215.644 31.043 Q 215.993 32.609 216.014 34.425 A 20.267 20.267 0 0 1 216.016 34.668 A 10.842 10.842 0 0 1 215.991 35.345 Q 215.942 36.121 215.794 37.268 A 66.569 66.569 0 0 1 215.625 38.477 A 92.469 92.469 0 0 1 215.405 39.88 Q 215.039 42.114 214.453 45.117 A 1755.907 1755.907 0 0 1 213.996 47.58 Q 213.37 50.93 213.006 52.79 A 234.258 234.258 0 0 1 212.988 52.881 A 110.726 110.726 0 0 0 212.775 53.998 Q 212.477 55.608 212.403 56.348 A 19.673 19.673 0 0 0 212.314 57.644 A 16.666 16.666 0 0 0 212.305 58.203 A 4.726 4.726 0 0 0 212.339 58.801 Q 212.42 59.428 212.688 59.716 A 0.774 0.774 0 0 0 213.281 59.961 Q 214.163 59.961 215.442 59.165 A 10.569 10.569 0 0 0 215.723 58.984 A 22.415 22.415 0 0 0 218.384 56.896 A 24.604 24.604 0 0 0 218.555 56.738 Q 219.586 55.781 220.117 55.157 A 5.649 5.649 0 0 0 220.41 54.785 A 0.342 0.342 0 0 1 220.568 54.835 Q 220.88 55.006 221.485 55.762 Q 222.129 56.567 222.242 56.974 A 0.586 0.586 0 0 1 222.266 57.129 A 6.05 6.05 0 0 1 221.832 57.897 Q 221.305 58.702 220.38 59.713 A 27.898 27.898 0 0 1 219.776 60.352 A 32.627 32.627 0 0 1 217.417 62.533 A 41.736 41.736 0 0 1 215.283 64.209 Q 212.696 66.113 210.01 67.383 A 16.548 16.548 0 0 1 208.239 68.106 Q 206.619 68.652 205.274 68.652 A 5.167 5.167 0 0 1 201.612 67.236 Q 200.098 65.82 200.098 63.086 A 18.612 18.612 0 0 1 200.132 61.992 Q 200.168 61.386 200.241 60.706 A 35.588 35.588 0 0 1 200.342 59.863 A 39.641 39.641 0 0 1 200.694 57.683 A 50.6 50.6 0 0 1 201.074 55.859 Z M 14.942 54.688 L 22.266 16.797 Q 22.984 12.968 23.115 10.637 A 17.288 17.288 0 0 0 23.145 9.668 Q 23.145 8.33 21.638 7.522 A 5.427 5.427 0 0 0 21.338 7.373 A 14.116 14.116 0 0 0 20.38 6.972 Q 19.443 6.623 18.758 6.558 A 3.19 3.19 0 0 0 18.457 6.543 Q 18.361 6.543 18.36 6.161 A 3.044 3.044 0 0 1 18.36 6.152 Q 18.36 3.809 18.946 3.223 A 813.554 813.554 0 0 0 19.73 3.275 Q 20.808 3.345 22.23 3.436 A 2409.183 2409.183 0 0 0 22.705 3.467 Q 25 3.613 27.295 3.711 Q 29.052 3.786 30.208 3.803 A 43.22 43.22 0 0 0 30.86 3.809 Q 32.361 3.809 40.703 3.381 A 2222.227 2222.227 0 0 0 43.75 3.223 L 43.75 3.711 A 6.122 6.122 0 0 1 43.704 4.434 Q 43.644 4.937 43.506 5.518 Q 43.323 6.285 43.113 6.478 A 0.213 0.213 0 0 1 42.969 6.543 Q 42.481 6.543 41.162 6.934 A 18.986 18.986 0 0 0 38.967 7.729 A 17.297 17.297 0 0 0 38.672 7.861 A 8.124 8.124 0 0 0 38.156 8.119 Q 37.673 8.383 37.413 8.635 A 1.259 1.259 0 0 0 37.207 8.887 A 2.899 2.899 0 0 0 37.006 9.252 Q 36.695 9.911 36.328 11.23 Q 35.84 12.988 35.449 14.697 A 304.844 304.844 0 0 1 35.266 15.494 Q 35.023 16.546 34.878 17.128 A 38.88 38.88 0 0 1 34.863 17.187 L 27.735 53.906 A 65.138 65.138 0 0 1 24.444 65.408 A 49.801 49.801 0 0 1 19.19 75.391 A 36.05 36.05 0 0 1 8.453 85.525 A 48.145 48.145 0 0 1 1.367 89.16 A 2.097 2.097 0 0 1 0.102 87.69 A 3.471 3.471 0 0 1 0 86.816 A 11.297 11.297 0 0 1 0.016 86.204 Q 0.047 85.635 0.14 85.254 A 2.47 2.47 0 0 1 0.196 85.059 A 33.957 33.957 0 0 0 6.738 77.93 A 35.581 35.581 0 0 0 9.29 73.511 Q 10.4 71.245 11.349 68.614 A 57.439 57.439 0 0 0 11.475 68.262 Q 13.477 62.598 14.942 54.688 Z M 134.18 67.871 L 140.039 37.305 Q 140.137 36.816 140.186 36.279 A 11.245 11.245 0 0 0 140.221 35.744 Q 140.233 35.462 140.234 35.149 A 18.746 18.746 0 0 0 140.235 35.059 Q 140.235 33.164 139.596 32.801 A 0.672 0.672 0 0 0 139.258 32.715 A 2.221 2.221 0 0 0 138.68 32.801 Q 138.12 32.953 137.386 33.374 A 11.584 11.584 0 0 0 136.865 33.691 A 20.589 20.589 0 0 0 134.033 35.889 Q 132.947 36.895 132.358 37.602 A 7.276 7.276 0 0 0 132.129 37.891 Q 131.934 37.891 131.104 36.914 A 10.371 10.371 0 0 1 130.822 36.568 Q 130.393 36.017 130.299 35.703 A 0.556 0.556 0 0 1 130.274 35.547 Q 130.803 34.312 132.408 32.639 A 24.446 24.446 0 0 1 132.764 32.275 A 34.83 34.83 0 0 1 135.087 30.163 A 45.399 45.399 0 0 1 137.256 28.467 Q 139.844 26.563 142.529 25.293 A 16.548 16.548 0 0 1 144.301 24.57 Q 145.92 24.023 147.266 24.023 A 5.84 5.84 0 0 1 149.082 24.294 A 4.858 4.858 0 0 1 150.977 25.439 A 4.516 4.516 0 0 1 152.151 27.416 Q 152.442 28.372 152.442 29.59 A 26.307 26.307 0 0 1 152.366 31.62 A 22.672 22.672 0 0 1 152.295 32.373 A 48.68 48.68 0 0 1 152.071 34.117 A 41.218 41.218 0 0 1 151.953 34.863 L 151.172 39.16 Q 153.907 32.747 157.69 28.565 A 27.717 27.717 0 0 1 157.959 28.271 A 15.206 15.206 0 0 1 160.922 25.767 A 10.774 10.774 0 0 1 166.797 24.023 A 6.675 6.675 0 0 1 170.641 25.279 Q 171.635 25.963 172.572 27.019 A 15.089 15.089 0 0 1 173.242 27.832 Q 173.242 31.641 171.826 34.619 Q 170.478 37.455 167.581 37.591 A 6.308 6.308 0 0 1 167.285 37.598 Q 165.878 37.598 164.234 35.855 A 12.375 12.375 0 0 1 163.867 35.449 Q 162.319 33.656 160.974 33.36 A 2.432 2.432 0 0 0 160.449 33.301 Q 159.278 33.301 157.373 35.742 Q 155.934 37.588 154.411 40.298 A 62.234 62.234 0 0 0 153.418 42.139 A 73.111 73.111 0 0 0 150.182 49.333 A 81.682 81.682 0 0 0 149.707 50.586 A 67.771 67.771 0 0 0 147.937 56.048 A 55.541 55.541 0 0 0 147.168 59.18 L 145.41 67.871 A 26.491 26.491 0 0 1 139.844 68.457 A 27.889 27.889 0 0 1 134.18 67.871 Z M 272.754 54.199 L 280.371 14.746 Q 281.074 11.074 281.215 9.59 A 6.683 6.683 0 0 0 281.25 8.984 Q 281.25 7.218 278.014 6.904 A 16.143 16.143 0 0 0 276.465 6.836 A 0.206 0.206 0 0 1 276.285 6.724 Q 276.172 6.54 276.172 6.055 A 3.474 3.474 0 0 1 276.337 4.961 A 2.891 2.891 0 0 1 277.051 3.809 Q 278.223 3.809 280.42 3.418 A 80.662 80.662 0 0 0 283.281 2.853 A 98.865 98.865 0 0 0 285.108 2.441 Q 287.598 1.855 289.795 1.221 Q 291.992 0.586 293.164 0 Q 294.118 0.381 294.14 2.066 A 6.156 6.156 0 0 1 294.141 2.148 Q 294.141 2.782 293.847 4.338 A 45.843 45.843 0 0 1 293.799 4.59 A 174.223 174.223 0 0 1 293.067 8.154 A 1083.522 1083.522 0 0 1 292.883 9 Q 292.63 10.167 292.484 10.824 A 158.833 158.833 0 0 1 292.481 10.84 L 283.789 55.371 Q 283.692 55.859 283.643 56.396 A 11.245 11.245 0 0 0 283.608 56.932 Q 283.596 57.214 283.594 57.527 A 18.746 18.746 0 0 0 283.594 57.617 Q 283.594 59.512 284.232 59.875 A 0.672 0.672 0 0 0 284.571 59.961 Q 285.452 59.961 286.731 59.165 A 10.569 10.569 0 0 0 287.012 58.984 A 22.415 22.415 0 0 0 289.673 56.896 A 24.604 24.604 0 0 0 289.844 56.738 Q 290.875 55.781 291.406 55.157 A 5.649 5.649 0 0 0 291.699 54.785 A 0.342 0.342 0 0 1 291.857 54.835 Q 292.159 55.001 292.734 55.712 A 13.242 13.242 0 0 1 292.774 55.762 Q 293.418 56.567 293.531 56.974 A 0.586 0.586 0 0 1 293.555 57.129 Q 293.152 58.176 291.787 59.687 A 23.961 23.961 0 0 1 291.162 60.352 A 32.627 32.627 0 0 1 288.804 62.533 A 41.736 41.736 0 0 1 286.67 64.209 A 31.392 31.392 0 0 1 282.029 67.056 A 28.765 28.765 0 0 1 281.348 67.383 A 17.224 17.224 0 0 1 279.549 68.106 Q 278.626 68.413 277.797 68.548 A 7.712 7.712 0 0 1 276.563 68.652 A 5.167 5.167 0 0 1 272.901 67.236 Q 271.387 65.82 271.387 63.086 A 8.079 8.079 0 0 1 271.414 62.483 Q 271.501 61.337 271.875 59.131 Q 272.211 57.15 272.5 55.562 A 175.861 175.861 0 0 1 272.754 54.199 Z M 263.281 26.172 L 258.106 52.734 A 563.736 563.736 0 0 0 257.926 53.775 Q 257.704 55.061 257.593 55.753 A 58.481 58.481 0 0 0 257.569 55.908 A 12.647 12.647 0 0 0 257.459 56.799 A 9.589 9.589 0 0 0 257.422 57.617 Q 257.422 59.512 258.06 59.875 A 0.672 0.672 0 0 0 258.399 59.961 A 2.544 2.544 0 0 0 259.122 59.846 Q 259.761 59.655 260.541 59.152 A 9.928 9.928 0 0 0 260.791 58.984 Q 262.207 58.008 263.574 56.738 A 55.591 55.591 0 0 0 264.209 56.14 Q 264.845 55.531 265.251 55.094 A 10.447 10.447 0 0 0 265.528 54.785 Q 265.723 54.785 266.553 55.762 A 10.371 10.371 0 0 1 266.835 56.107 Q 267.264 56.659 267.357 56.973 A 0.556 0.556 0 0 1 267.383 57.129 A 6.05 6.05 0 0 1 266.949 57.897 Q 266.423 58.702 265.497 59.713 A 27.898 27.898 0 0 1 264.893 60.352 A 32.627 32.627 0 0 1 262.534 62.533 A 41.736 41.736 0 0 1 260.401 64.209 Q 257.813 66.113 255.127 67.383 A 16.548 16.548 0 0 1 253.356 68.106 Q 251.737 68.652 250.391 68.652 A 5.84 5.84 0 0 1 248.575 68.381 A 4.858 4.858 0 0 1 246.68 67.236 Q 245.215 65.82 245.215 63.379 A 23.033 23.033 0 0 1 245.252 62.049 A 20.982 20.982 0 0 1 245.264 61.865 A 19.127 19.127 0 0 1 245.387 60.621 A 17.462 17.462 0 0 1 245.41 60.449 A 25.025 25.025 0 0 1 243.06 64.038 Q 239.38 68.652 234.766 68.652 A 11.523 11.523 0 0 1 230.927 68.041 A 9.644 9.644 0 0 1 226.367 64.648 A 14.302 14.302 0 0 1 223.925 59.393 Q 223.422 57.364 223.352 54.987 A 26.502 26.502 0 0 1 223.34 54.199 A 24.169 24.169 0 0 1 224.576 46.683 A 29.713 29.713 0 0 1 225.733 43.701 A 34.623 34.623 0 0 1 232.372 33.937 L 232.373 33.936 A 34.529 34.529 0 0 1 242.188 26.758 Q 247.754 24.023 254.102 24.023 A 24.565 24.565 0 0 1 257.068 24.194 A 18.404 18.404 0 0 1 259.717 24.707 Q 262.207 25.391 263.281 26.172 Z M 43.604 64.111 A 9.913 9.913 0 0 0 46.536 66.652 Q 49.681 68.457 54.59 68.457 Q 59.571 68.457 63.867 66.016 A 24.698 24.698 0 0 0 64.4 65.704 A 25.726 25.726 0 0 0 71.387 59.473 Q 74.61 55.371 76.367 50.293 Q 78.125 45.215 78.125 39.844 A 28.573 28.573 0 0 0 78.109 38.88 Q 78.023 36.313 77.468 34.127 A 15.248 15.248 0 0 0 74.707 28.369 Q 72.304 25.314 67.873 24.406 A 20.485 20.485 0 0 0 63.77 24.023 A 17.838 17.838 0 0 0 54.395 26.611 A 24.578 24.578 0 0 0 52.823 27.642 A 26.261 26.261 0 0 0 46.924 33.496 A 35.325 35.325 0 0 0 41.992 42.773 A 33.438 33.438 0 0 0 41.533 44.172 A 28.972 28.972 0 0 0 40.235 52.637 A 28.712 28.712 0 0 0 40.259 53.828 Q 40.364 56.366 40.926 58.526 A 15.273 15.273 0 0 0 43.604 64.111 Z M 55.567 63.281 Q 57.715 63.281 59.375 61.23 A 15.572 15.572 0 0 0 60.753 59.202 Q 61.591 57.748 62.305 55.908 A 50.535 50.535 0 0 0 63.989 50.726 A 58.437 58.437 0 0 0 64.453 48.877 A 63.035 63.035 0 0 0 65.559 42.896 A 56.506 56.506 0 0 0 65.723 41.553 A 59.962 59.962 0 0 0 65.913 39.506 Q 66.078 37.308 66.02 35.577 A 24.851 24.851 0 0 0 66.016 35.449 A 18.762 18.762 0 0 0 65.875 33.345 Q 65.605 31.257 64.825 30.221 A 2.421 2.421 0 0 0 62.793 29.199 A 4.184 4.184 0 0 0 60.298 30.041 Q 59.71 30.465 59.165 31.103 A 8.413 8.413 0 0 0 59.082 31.201 Q 57.646 32.933 56.502 35.543 A 27.696 27.696 0 0 0 56.153 36.377 A 45.285 45.285 0 0 0 54.655 40.795 A 54.43 54.43 0 0 0 54.004 43.311 Q 53.125 47.07 52.686 50.732 A 55.577 55.577 0 0 0 52.44 53.235 Q 52.326 54.768 52.326 56.104 A 28.734 28.734 0 0 0 52.344 57.129 A 18.83 18.83 0 0 0 52.514 59.2 Q 52.81 61.255 53.581 62.275 A 2.376 2.376 0 0 0 55.567 63.281 Z M 249.317 39.746 L 251.074 30.957 A 1.785 1.785 0 0 0 250.498 30.586 Q 249.758 30.273 248.438 30.273 A 6.204 6.204 0 0 0 244.884 31.416 Q 243.944 32.056 243.067 33.057 A 21.674 21.674 0 0 0 240.584 36.565 A 29.128 29.128 0 0 0 238.916 39.99 A 49.697 49.697 0 0 0 236.279 48.438 A 50.162 50.162 0 0 0 235.719 51.452 Q 235.501 52.88 235.412 54.132 A 23.145 23.145 0 0 0 235.352 55.762 A 14.756 14.756 0 0 0 235.458 57.62 Q 235.705 59.553 236.524 60.451 A 2.394 2.394 0 0 0 238.379 61.23 A 3.326 3.326 0 0 0 240.117 60.707 Q 241.21 60.044 242.291 58.544 A 14.871 14.871 0 0 0 242.627 58.057 Q 244.259 55.589 245.685 52.06 A 54.409 54.409 0 0 0 246.485 49.951 A 74.856 74.856 0 0 0 249.317 39.746 Z" vector-effect="non-scaling-stroke"></path></g></svg> 