<?xml version="1.0" encoding="UTF-8"?> <svg xmlns="http://www.w3.org/2000/svg" width="337.305" height="89.16" viewBox="0 0 337.305 89.16"><g id="svgGroup" stroke-linecap="round" fill-rule="evenodd" font-size="9pt" stroke="#00000000" stroke-width="0" fill="#000000" style="stroke:#00000000;stroke-width:0;fill:#000000"><path d="M 210.254 54.785 L 210.254 41.406 A 26.755 26.755 0 0 0 210.158 39.041 Q 209.842 35.503 208.496 34.082 Q 207.715 33.105 206.397 32.715 A 23.356 23.356 0 0 0 205.456 32.456 Q 204.712 32.269 204.102 32.178 A 7.764 7.764 0 0 1 203.795 32.126 Q 203.125 31.998 203.125 31.836 A 37.433 37.433 0 0 1 203.137 30.851 Q 203.188 28.937 203.454 28.529 A 0.199 0.199 0 0 1 203.613 28.418 Q 206.153 28.418 210.84 27.295 Q 215.216 26.246 220.699 25.07 A 598.828 598.828 0 0 1 221.485 24.902 L 221.973 24.805 Q 222.052 24.725 222.26 24.71 A 1.449 1.449 0 0 1 222.363 24.707 L 222.559 24.609 A 0.886 0.886 0 0 1 222.956 24.71 Q 223.231 24.847 223.52 25.17 A 3.507 3.507 0 0 1 223.584 25.244 A 3.346 3.346 0 0 1 223.783 25.502 Q 224.039 25.872 224.039 26.144 A 0.518 0.518 0 0 1 224.024 26.27 L 223.633 29.297 A 3.783 3.783 0 0 0 223.637 29.479 Q 223.649 29.734 223.7 29.837 A 0.169 0.169 0 0 0 223.731 29.883 A 0.278 0.278 0 0 0 223.838 29.856 Q 224.04 29.768 224.414 29.395 Q 229.785 24.316 237.988 24.316 A 10.792 10.792 0 0 1 246.263 27.947 A 14.462 14.462 0 0 1 247.217 29.102 A 15.206 15.206 0 0 1 249.389 33.391 Q 250.781 37.549 250.781 43.652 L 250.781 53.32 A 95.998 95.998 0 0 0 250.822 56.207 Q 250.941 60.167 251.419 62.033 A 7.967 7.967 0 0 0 251.465 62.207 Q 251.635 62.547 252.617 63.034 A 12.312 12.312 0 0 0 252.93 63.184 A 21.747 21.747 0 0 0 255.439 64.153 A 23.829 23.829 0 0 0 255.615 64.209 Q 256.995 64.637 257.586 64.648 A 1.65 1.65 0 0 0 257.617 64.648 Q 257.813 64.648 257.91 65.43 A 12.725 12.725 0 0 1 257.998 66.55 A 15.018 15.018 0 0 1 258.008 67.09 Q 258.008 67.969 257.813 68.262 A 8.346 8.346 0 0 1 257.479 68.254 Q 256.988 68.234 256.128 68.163 A 89.994 89.994 0 0 1 255.567 68.115 A 144.097 144.097 0 0 0 254.011 67.987 Q 253.212 67.925 252.317 67.863 A 257.755 257.755 0 0 0 251.709 67.822 Q 249.512 67.676 247.559 67.578 A 111.912 111.912 0 0 0 246.631 67.535 Q 245.725 67.498 245.026 67.486 A 35.204 35.204 0 0 0 244.434 67.48 Q 243.238 67.48 241.326 67.595 A 121.289 121.289 0 0 0 240.088 67.676 A 444.862 444.862 0 0 1 236.051 67.941 A 386.637 386.637 0 0 1 234.766 68.018 Q 232.692 68.137 231.791 68.224 A 12.66 12.66 0 0 0 231.446 68.262 A 0.837 0.837 0 0 1 231.275 67.987 Q 231.055 67.456 231.055 66.211 A 9.784 9.784 0 0 1 231.064 65.761 Q 231.111 64.756 231.385 64.659 A 0.181 0.181 0 0 1 231.446 64.648 A 3.803 3.803 0 0 0 231.986 64.606 Q 232.547 64.524 233.295 64.29 A 14.599 14.599 0 0 0 233.545 64.209 A 21.768 21.768 0 0 0 236.084 63.184 A 9.329 9.329 0 0 0 236.502 62.971 Q 237.14 62.624 237.33 62.355 A 0.449 0.449 0 0 0 237.403 62.207 A 18.458 18.458 0 0 0 237.763 60.307 Q 238.065 58.161 238.085 55.209 A 62.47 62.47 0 0 0 238.086 54.785 L 238.086 45.996 A 41.767 41.767 0 0 0 237.961 42.642 Q 237.683 39.209 236.789 37.052 A 8.348 8.348 0 0 0 236.084 35.693 A 6.524 6.524 0 0 0 231.616 32.786 A 10.435 10.435 0 0 0 229.688 32.617 Q 226.66 32.617 224.805 33.74 A 4.218 4.218 0 0 0 223.73 34.645 Q 222.949 35.584 222.949 36.914 L 222.949 53.32 A 95.998 95.998 0 0 0 222.99 56.207 Q 223.109 60.167 223.587 62.033 A 7.967 7.967 0 0 0 223.633 62.207 A 0.823 0.823 0 0 0 223.788 62.411 Q 224.117 62.742 225 63.184 Q 226.172 63.77 227.539 64.209 Q 228.764 64.603 229.283 64.644 A 1.422 1.422 0 0 0 229.395 64.648 Q 229.59 64.648 229.688 65.43 A 12.725 12.725 0 0 1 229.776 66.55 A 15.018 15.018 0 0 1 229.785 67.09 Q 229.785 67.969 229.59 68.262 A 13.919 13.919 0 0 0 229.164 68.217 Q 228.467 68.152 227.141 68.07 A 202.33 202.33 0 0 0 226.27 68.018 A 415.036 415.036 0 0 1 222.324 67.77 A 476.266 476.266 0 0 1 220.947 67.676 Q 218.164 67.48 216.602 67.48 A 36.222 36.222 0 0 0 215.964 67.487 Q 215.253 67.499 214.321 67.538 A 121.05 121.05 0 0 0 213.428 67.578 A 209.528 209.528 0 0 0 210.343 67.752 A 233.136 233.136 0 0 0 209.278 67.822 A 239.634 239.634 0 0 0 207.491 67.95 Q 206.675 68.012 205.946 68.074 A 137.559 137.559 0 0 0 205.469 68.115 A 84.919 84.919 0 0 1 204.75 68.176 Q 203.861 68.247 203.4 68.259 A 6.627 6.627 0 0 1 203.223 68.262 A 0.837 0.837 0 0 1 203.052 67.987 Q 202.832 67.456 202.832 66.211 A 9.784 9.784 0 0 1 202.842 65.761 Q 202.888 64.756 203.162 64.659 A 0.181 0.181 0 0 1 203.223 64.648 A 3.933 3.933 0 0 0 203.743 64.61 Q 204.298 64.535 205.061 64.316 A 17.199 17.199 0 0 0 205.42 64.209 A 24.892 24.892 0 0 0 208.155 63.184 A 10.286 10.286 0 0 0 208.606 62.971 Q 209.274 62.634 209.483 62.371 A 0.442 0.442 0 0 0 209.571 62.207 A 18.458 18.458 0 0 0 209.931 60.307 Q 210.233 58.161 210.253 55.209 A 62.47 62.47 0 0 0 210.254 54.785 Z M 136.035 68.066 L 134.668 68.359 Q 134.144 68.359 134.089 66.951 A 8.972 8.972 0 0 1 134.082 66.602 L 134.082 62.988 A 2.447 2.447 0 0 0 134.078 62.838 Q 134.042 62.248 133.692 62.598 Q 131.641 64.746 127.686 66.504 A 20.711 20.711 0 0 1 119.498 68.259 A 23.78 23.78 0 0 1 119.141 68.262 A 10.288 10.288 0 0 1 112.451 65.918 A 14.159 14.159 0 0 1 109.006 61.744 A 18.053 18.053 0 0 1 108.008 59.619 Q 106.446 55.664 106.446 50.879 L 106.446 41.406 A 26.755 26.755 0 0 0 106.349 39.041 Q 106.034 35.503 104.688 34.082 Q 103.906 33.105 102.588 32.715 A 23.356 23.356 0 0 0 101.647 32.456 Q 100.904 32.269 100.293 32.178 A 7.764 7.764 0 0 1 99.986 32.126 Q 99.317 31.998 99.317 31.836 A 37.433 37.433 0 0 1 99.329 30.851 Q 99.379 28.937 99.645 28.529 A 0.199 0.199 0 0 1 99.805 28.418 A 6.838 6.838 0 0 0 100.3 28.397 Q 101.245 28.326 103.076 28.027 A 182.903 182.903 0 0 0 105.579 27.6 A 237.052 237.052 0 0 0 108.301 27.1 A 107.663 107.663 0 0 0 112.412 26.239 A 95.636 95.636 0 0 0 113.721 25.928 A 220.648 220.648 0 0 0 114.939 25.626 Q 116.116 25.33 116.968 25.099 A 53.718 53.718 0 0 0 117.676 24.902 A 11.014 11.014 0 0 0 117.957 24.805 A 8.655 8.655 0 0 0 118.213 24.707 A 1.375 1.375 0 0 1 118.607 24.615 A 1.655 1.655 0 0 1 118.75 24.609 A 0.854 0.854 0 0 1 119.17 24.727 Q 119.448 24.882 119.727 25.244 A 4.245 4.245 0 0 1 119.94 25.546 Q 120.215 25.977 120.215 26.27 Q 119.841 29.559 119.582 31.761 A 574.117 574.117 0 0 1 119.434 33.008 Q 119.141 35.449 119.141 36.035 L 119.141 46.484 Q 119.141 52.447 120.338 55.627 A 8.426 8.426 0 0 0 121.094 57.178 A 6.331 6.331 0 0 0 125.114 59.976 Q 126.239 60.25 127.594 60.254 A 13.63 13.63 0 0 0 127.637 60.254 A 11.653 11.653 0 0 0 129.462 60.12 Q 131.45 59.805 132.617 58.74 A 5.904 5.904 0 0 0 133.58 57.634 A 4.04 4.04 0 0 0 134.278 55.371 L 134.278 41.406 A 26.755 26.755 0 0 0 134.181 39.041 Q 133.866 35.503 132.52 34.082 Q 131.738 33.105 130.42 32.715 A 23.356 23.356 0 0 0 129.479 32.456 Q 128.736 32.269 128.125 32.178 A 7.764 7.764 0 0 1 127.818 32.126 Q 127.149 31.998 127.149 31.836 A 37.433 37.433 0 0 1 127.161 30.851 Q 127.211 28.937 127.477 28.529 A 0.199 0.199 0 0 1 127.637 28.418 A 6.838 6.838 0 0 0 128.132 28.397 Q 129.077 28.326 130.908 28.027 A 182.903 182.903 0 0 0 133.411 27.6 A 237.052 237.052 0 0 0 136.133 27.1 A 107.663 107.663 0 0 0 140.244 26.239 A 95.636 95.636 0 0 0 141.553 25.928 A 220.648 220.648 0 0 0 142.771 25.626 Q 143.948 25.33 144.8 25.099 A 53.718 53.718 0 0 0 145.508 24.902 L 146.582 24.609 A 0.854 0.854 0 0 1 147.002 24.727 Q 147.28 24.882 147.559 25.244 A 4.245 4.245 0 0 1 147.772 25.546 Q 148.047 25.977 148.047 26.27 Q 147.673 29.559 147.414 31.761 A 574.117 574.117 0 0 1 147.266 33.008 Q 146.973 35.449 146.973 35.938 L 146.973 55.078 A 43.228 43.228 0 0 0 147.007 56.871 Q 147.121 59.589 147.608 60.696 A 1.746 1.746 0 0 0 147.949 61.23 A 2.039 2.039 0 0 0 148.398 61.562 Q 148.834 61.806 149.491 61.958 A 6.578 6.578 0 0 0 149.512 61.963 Q 150.586 62.207 151.66 62.207 L 152.637 62.207 A 0.442 0.442 0 0 1 152.939 62.47 Q 153.028 62.663 153.028 62.988 A 21.422 21.422 0 0 1 153.013 63.804 Q 152.949 65.486 152.594 65.765 A 0.242 0.242 0 0 1 152.442 65.82 Q 146.459 66.399 142.431 66.978 A 118.077 118.077 0 0 0 142.334 66.992 A 174.7 174.7 0 0 0 140.421 67.279 Q 137.72 67.7 136.035 68.066 Z M 22.266 54.688 L 22.266 16.895 Q 22.266 11.954 21.778 10.064 A 3.271 3.271 0 0 0 21.485 9.277 A 1.374 1.374 0 0 0 21.211 8.916 Q 20.81 8.524 19.971 8.154 A 22.901 22.901 0 0 0 17.481 7.227 Q 16.303 6.864 15.546 6.838 A 3.344 3.344 0 0 0 15.43 6.836 A 0.222 0.222 0 0 1 15.243 6.708 Q 15.054 6.4 15.04 5.345 A 13.031 13.031 0 0 1 15.039 5.176 A 24.468 24.468 0 0 1 15.046 4.583 Q 15.075 3.382 15.235 3.223 L 29.395 3.809 Q 30.371 3.906 33.789 3.711 Q 36.406 3.561 40.454 3.355 A 2427.953 2427.953 0 0 1 43.067 3.223 A 5.536 5.536 0 0 1 43.36 4.953 A 5.268 5.268 0 0 1 43.36 4.98 Q 43.36 6.582 43.069 6.801 A 0.162 0.162 0 0 1 42.969 6.836 A 2.938 2.938 0 0 0 42.624 6.86 Q 42.047 6.93 41.018 7.2 A 29.476 29.476 0 0 0 40.918 7.227 A 23.517 23.517 0 0 0 38.467 8.022 A 21.457 21.457 0 0 0 38.135 8.154 Q 36.927 8.647 36.662 9.098 A 0.608 0.608 0 0 0 36.621 9.18 A 12.516 12.516 0 0 0 36.322 10.614 Q 36.064 12.275 35.979 14.804 A 80.247 80.247 0 0 0 35.938 17.48 L 35.938 53.906 A 58.064 58.064 0 0 1 35.312 62.661 Q 34.455 68.279 32.422 72.852 A 30.199 30.199 0 0 1 28.096 79.928 A 25.106 25.106 0 0 1 22.461 84.961 A 25.624 25.624 0 0 1 12.399 88.75 A 33.908 33.908 0 0 1 7.031 89.16 A 10.367 10.367 0 0 1 4.376 88.836 A 7.973 7.973 0 0 1 1.465 87.402 A 9.404 9.404 0 0 1 0 82.324 A 5.553 5.553 0 0 1 1.714 78.263 A 7.227 7.227 0 0 1 1.856 78.125 A 6.059 6.059 0 0 1 6.153 76.367 A 4.381 4.381 0 0 1 8.004 76.811 Q 9.543 77.526 11.231 79.395 Q 13.557 81.98 14.896 82.284 A 1.532 1.532 0 0 0 15.235 82.324 A 4.634 4.634 0 0 0 19.332 79.946 Q 20.378 78.292 20.899 75.488 A 45.382 45.382 0 0 0 21.346 72.798 Q 21.525 71.496 21.67 70.007 A 100.93 100.93 0 0 0 21.924 66.846 Q 22.218 62.356 22.259 56.604 A 266.916 266.916 0 0 0 22.266 54.688 Z M 285.938 41.016 L 285.938 37.5 Q 285.938 32.185 283.787 30.398 A 4.131 4.131 0 0 0 281.055 29.492 Q 275.391 29.492 275.391 36.035 A 4.125 4.125 0 0 1 275.183 37.38 Q 274.801 38.495 273.713 39.161 A 4.393 4.393 0 0 1 273.633 39.209 A 7.582 7.582 0 0 1 269.861 40.233 A 8.929 8.929 0 0 1 269.727 40.234 A 10.674 10.674 0 0 1 267.482 40.015 Q 264.781 39.433 263.574 37.305 Q 263.574 34.766 265.381 32.422 A 16.623 16.623 0 0 1 267.862 29.859 A 21.894 21.894 0 0 1 270.166 28.174 Q 273.145 26.27 276.905 25.146 A 26.318 26.318 0 0 1 284.473 24.023 Q 289.784 24.023 293.179 26.293 A 11.123 11.123 0 0 1 294.971 27.783 Q 298.197 31.096 298.581 39.146 A 47.505 47.505 0 0 1 298.633 41.406 L 298.633 57.227 A 6.967 6.967 0 0 0 298.722 58.397 Q 299.08 60.486 300.872 60.545 A 3.199 3.199 0 0 0 300.977 60.547 A 4.91 4.91 0 0 0 303.554 59.803 A 6.565 6.565 0 0 0 304.297 59.277 Q 304.915 59.63 304.974 60.541 A 3.08 3.08 0 0 1 304.981 60.742 Q 304.981 62.786 304.538 63.88 A 2.93 2.93 0 0 1 304.297 64.355 A 9.161 9.161 0 0 1 303.279 65.161 Q 301.972 66.066 299.854 67.041 Q 296.778 68.457 294.043 68.457 A 7.835 7.835 0 0 1 290.227 67.449 A 9.727 9.727 0 0 1 289.551 67.041 A 9.24 9.24 0 0 1 288.196 65.966 Q 287.449 65.242 287.013 64.424 A 5.233 5.233 0 0 1 286.719 63.77 A 0.174 0.174 0 0 0 286.659 63.79 Q 286.453 63.887 285.645 64.453 A 59.032 59.032 0 0 0 285.187 64.777 Q 284.546 65.234 284.18 65.527 A 18.948 18.948 0 0 1 281.51 66.962 A 23.581 23.581 0 0 1 279.688 67.676 A 16.007 16.007 0 0 1 274.414 68.555 A 15.708 15.708 0 0 1 270.838 68.17 A 10.647 10.647 0 0 1 265.869 65.576 A 9.757 9.757 0 0 1 262.703 58.523 A 12.423 12.423 0 0 1 262.696 58.105 Q 262.696 54.297 265.088 51.465 Q 267.481 48.633 271.094 46.973 A 67.86 67.86 0 0 1 272.412 46.423 A 52.39 52.39 0 0 1 273.633 45.947 A 121.224 121.224 0 0 0 274.756 45.52 A 93.424 93.424 0 0 0 275.781 45.117 A 157.555 157.555 0 0 1 277.545 44.571 Q 280.054 43.811 281.738 43.408 Q 283.985 42.871 285.059 42.48 A 1.178 1.178 0 0 0 285.85 41.669 Q 285.938 41.386 285.938 41.016 Z M 317.383 54.785 L 317.383 16.016 A 58.864 58.864 0 0 0 317.351 14.017 Q 317.314 12.946 317.237 12.012 A 59.529 59.529 0 0 0 317.12 10.762 Q 317.055 10.147 316.984 9.606 A 30.586 30.586 0 0 0 316.895 8.984 A 1.372 1.372 0 0 0 316.231 8.16 Q 315.224 7.536 312.766 7.44 A 24.206 24.206 0 0 0 311.817 7.422 L 310.938 7.422 A 0.371 0.371 0 0 1 310.621 7.219 Q 310.405 6.877 310.362 5.96 A 10.555 10.555 0 0 1 310.352 5.469 A 7.183 7.183 0 0 1 310.369 4.947 Q 310.452 3.809 310.938 3.809 A 78.957 78.957 0 0 0 318.752 2.754 A 68.437 68.437 0 0 0 321.631 2.148 Q 326.263 1.069 328.451 0.404 A 28.879 28.879 0 0 0 328.809 0.293 L 329.785 0 L 329.981 0 A 0.602 0.602 0 0 1 330.292 0.093 Q 330.49 0.211 330.688 0.48 A 2.762 2.762 0 0 1 330.762 0.586 Q 331.153 1.172 331.25 1.66 A 40.986 40.986 0 0 0 330.281 8.294 A 48.778 48.778 0 0 0 330.176 11.523 L 330.078 53.32 A 95.998 95.998 0 0 0 330.118 56.207 Q 330.238 60.167 330.715 62.033 A 7.967 7.967 0 0 0 330.762 62.207 Q 330.932 62.547 331.914 63.034 A 12.312 12.312 0 0 0 332.227 63.184 A 21.747 21.747 0 0 0 334.736 64.153 A 23.829 23.829 0 0 0 334.912 64.209 Q 336.292 64.637 336.883 64.648 A 1.65 1.65 0 0 0 336.914 64.648 Q 337.11 64.648 337.207 65.43 A 12.725 12.725 0 0 1 337.295 66.55 A 15.018 15.018 0 0 1 337.305 67.09 Q 337.305 67.969 337.11 68.262 A 8.346 8.346 0 0 1 336.776 68.254 Q 336.285 68.234 335.425 68.163 A 89.994 89.994 0 0 1 334.863 68.115 A 144.097 144.097 0 0 0 333.308 67.987 Q 332.509 67.925 331.613 67.863 A 257.755 257.755 0 0 0 331.006 67.822 Q 328.809 67.676 326.856 67.578 A 111.912 111.912 0 0 0 325.928 67.535 Q 325.022 67.498 324.323 67.486 A 35.204 35.204 0 0 0 323.731 67.48 A 36.222 36.222 0 0 0 323.093 67.487 Q 322.382 67.499 321.45 67.538 A 121.05 121.05 0 0 0 320.557 67.578 A 209.528 209.528 0 0 0 317.472 67.752 A 233.136 233.136 0 0 0 316.406 67.822 A 239.634 239.634 0 0 0 314.62 67.95 Q 313.804 68.012 313.074 68.074 A 137.559 137.559 0 0 0 312.598 68.115 A 84.919 84.919 0 0 1 311.879 68.176 Q 310.99 68.247 310.529 68.259 A 6.627 6.627 0 0 1 310.352 68.262 A 0.837 0.837 0 0 1 310.181 67.987 Q 309.961 67.456 309.961 66.211 A 9.784 9.784 0 0 1 309.971 65.761 Q 310.017 64.756 310.291 64.659 A 0.181 0.181 0 0 1 310.352 64.648 Q 311.001 64.648 312.124 64.345 A 18.26 18.26 0 0 0 312.598 64.209 A 21.451 21.451 0 0 0 314.685 63.467 A 18.782 18.782 0 0 0 315.332 63.184 Q 316.602 62.598 316.699 62.207 A 18.458 18.458 0 0 0 317.06 60.307 Q 317.362 58.161 317.382 55.209 A 62.47 62.47 0 0 0 317.383 54.785 Z M 165.528 54.785 L 165.528 41.406 A 26.755 26.755 0 0 0 165.431 39.041 Q 165.116 35.503 163.77 34.082 Q 162.988 33.105 161.67 32.715 A 23.356 23.356 0 0 0 160.729 32.456 Q 159.986 32.269 159.375 32.178 A 7.764 7.764 0 0 1 159.068 32.126 Q 158.399 31.998 158.399 31.836 A 37.433 37.433 0 0 1 158.411 30.851 Q 158.461 28.937 158.727 28.529 A 0.199 0.199 0 0 1 158.887 28.418 Q 161.426 28.418 165.967 27.295 A 268.999 268.999 0 0 1 170.642 26.184 A 314.392 314.392 0 0 1 175.586 25.098 L 177.832 24.609 A 0.854 0.854 0 0 1 178.252 24.727 Q 178.53 24.882 178.809 25.244 A 4.245 4.245 0 0 1 179.022 25.546 Q 179.297 25.977 179.297 26.27 A 8.684 8.684 0 0 0 179.252 26.582 Q 179.187 27.086 179.105 28.009 A 105.834 105.834 0 0 0 179.053 28.613 Q 178.906 30.371 178.809 30.566 Q 182.362 25.947 186.588 24.689 A 11.353 11.353 0 0 1 189.844 24.219 A 11.113 11.113 0 0 1 195.411 25.756 A 16.242 16.242 0 0 1 198.242 27.832 A 33.688 33.688 0 0 1 198.146 30.479 Q 197.946 33.01 197.329 34.644 A 7.518 7.518 0 0 1 197.022 35.352 A 4.167 4.167 0 0 1 194.022 37.65 A 6.839 6.839 0 0 1 192.578 37.793 A 4.234 4.234 0 0 1 191.099 37.503 Q 189.713 36.986 188.086 35.547 A 14.088 14.088 0 0 0 186.779 34.512 Q 185.028 33.301 183.594 33.301 Q 181.658 33.301 180.49 34.788 A 4.714 4.714 0 0 0 180.469 34.814 A 8.346 8.346 0 0 0 179.403 36.657 Q 179.012 37.573 178.76 38.672 A 21.765 21.765 0 0 0 178.223 43.475 A 23.95 23.95 0 0 0 178.223 43.555 L 178.223 53.418 A 93.329 93.329 0 0 0 178.263 56.263 Q 178.388 60.357 178.906 62.207 A 0.823 0.823 0 0 0 179.062 62.411 Q 179.39 62.742 180.274 63.184 Q 181.446 63.77 182.813 64.209 Q 184.037 64.603 184.557 64.644 A 1.422 1.422 0 0 0 184.668 64.648 Q 184.863 64.648 184.961 65.43 A 12.725 12.725 0 0 1 185.049 66.55 A 15.018 15.018 0 0 1 185.059 67.09 Q 185.059 67.969 184.863 68.262 A 13.919 13.919 0 0 0 184.438 68.217 Q 183.74 68.152 182.414 68.07 A 202.33 202.33 0 0 0 181.543 68.018 A 415.036 415.036 0 0 1 177.597 67.77 A 476.266 476.266 0 0 1 176.221 67.676 Q 173.438 67.48 171.875 67.48 A 36.222 36.222 0 0 0 171.237 67.487 Q 170.526 67.499 169.594 67.538 A 121.05 121.05 0 0 0 168.701 67.578 A 209.528 209.528 0 0 0 165.616 67.752 A 233.136 233.136 0 0 0 164.551 67.822 A 239.634 239.634 0 0 0 162.765 67.95 Q 161.948 68.012 161.219 68.074 A 137.559 137.559 0 0 0 160.742 68.115 A 84.919 84.919 0 0 1 160.023 68.176 Q 159.134 68.247 158.673 68.259 A 6.627 6.627 0 0 1 158.496 68.262 A 0.837 0.837 0 0 1 158.325 67.987 Q 158.106 67.456 158.106 66.211 A 9.784 9.784 0 0 1 158.115 65.761 Q 158.162 64.756 158.435 64.659 A 0.181 0.181 0 0 1 158.496 64.648 Q 159.146 64.648 160.268 64.345 A 18.26 18.26 0 0 0 160.742 64.209 A 21.451 21.451 0 0 0 162.83 63.467 A 18.782 18.782 0 0 0 163.477 63.184 Q 164.746 62.598 164.844 62.207 A 18.458 18.458 0 0 0 165.204 60.307 Q 165.506 58.161 165.526 55.209 A 62.47 62.47 0 0 0 165.528 54.785 Z M 62.154 66.737 A 23.339 23.339 0 0 0 71.387 68.555 Q 77.832 68.555 83.057 65.576 Q 88.281 62.598 91.309 57.568 A 21.265 21.265 0 0 0 94.336 46.387 A 24.926 24.926 0 0 0 94.324 45.61 A 20.763 20.763 0 0 0 91.26 35.156 A 23.035 23.035 0 0 0 83.008 27.197 Q 77.832 24.219 71.387 24.219 A 26.943 26.943 0 0 0 71.189 24.219 A 22.911 22.911 0 0 0 59.815 27.197 Q 54.59 30.176 51.514 35.156 A 20.233 20.233 0 0 0 49.763 38.73 A 21.75 21.75 0 0 0 48.438 46.387 A 21.008 21.008 0 0 0 51.514 57.568 A 22.784 22.784 0 0 0 59.815 65.576 A 22.519 22.519 0 0 0 62.154 66.737 Z M 72.363 63.184 A 6.576 6.576 0 0 0 74.623 62.809 A 5.75 5.75 0 0 0 76.856 61.328 A 9.762 9.762 0 0 0 78.52 58.894 Q 79.074 57.766 79.444 56.396 A 24.289 24.289 0 0 0 80.222 51.535 A 28.448 28.448 0 0 0 80.274 49.805 Q 80.274 37.783 76.647 32.911 A 7.844 7.844 0 0 0 70.02 29.59 A 6.227 6.227 0 0 0 67.823 29.964 A 5.534 5.534 0 0 0 65.576 31.543 A 10.383 10.383 0 0 0 63.966 34.07 Q 63.434 35.229 63.086 36.621 A 26.262 26.262 0 0 0 62.381 41.149 A 31.413 31.413 0 0 0 62.305 43.359 Q 62.305 55.149 65.862 59.927 A 7.696 7.696 0 0 0 72.363 63.184 Z M 285.938 57.324 L 285.938 47.461 L 280.86 49.219 Q 278.809 49.902 277.1 51.27 A 4.345 4.345 0 0 0 275.411 54.402 A 5.55 5.55 0 0 0 275.391 54.883 Q 275.391 58.398 276.905 59.961 A 5.039 5.039 0 0 0 278.867 61.245 A 5.103 5.103 0 0 0 280.567 61.523 A 8.525 8.525 0 0 0 282.112 61.392 Q 282.995 61.229 283.692 60.864 A 4.367 4.367 0 0 0 284.522 60.303 A 4.262 4.262 0 0 0 285.464 59.177 A 3.698 3.698 0 0 0 285.938 57.324 Z" vector-effect="non-scaling-stroke"></path></g></svg> 